<svg xmlns="http://www.w3.org/2000/svg" viewBox="0 0 512 512" width="512" height="512" role="img" aria-label="Maxwell Midodzi">
  <!-- Navy tile version of the "Rowhouse MM — Home" mark (two lit amber doorways).
       Safe to change: NOT referenced by manifest.json or precached by the SW.
       The installed-PWA PNG icons in this folder must NOT be replaced in place. -->
  <rect width="512" height="512" rx="26" ry="26" fill="#0F172A"/>
  <g fill="none" stroke="#ffffff" stroke-width="40" stroke-linejoin="miter" stroke-linecap="butt">
    <path d="M62 383 L62 191 L159 129 L256 191 L256 383"/>
    <path d="M62 191 L159 245 L256 191"/>
    <path d="M256 191 L353 129 L450 191 L450 383"/>
    <path d="M256 191 L353 245 L450 191"/>
  </g>
  <path d="M143 383 L143 333 Q143 316 159 316 Q175 316 175 333 L175 383 Z" fill="#e8a24a"/>
  <path d="M337 383 L337 333 Q337 316 353 316 Q369 316 369 333 L369 383 Z" fill="#e8a24a"/>
</svg>
